# xmcd
#
# Track frame offsets:
#	150
#	19127
#	32049
#	41089
#	50646
#	58245
#	66135
#	74732
#	82627
#	90804
#	98144
#	105910
#	114807
#	122351
#	130183
#	138652
#	148511
#	158693
#	167662
#	178470
#	194237
#
# Disc length: 2720 seconds
#
# Revision: 1
# Processed by: cddbd v1.5.1PL0 Copyright (c) Steve Scherf et al.
# Submitted via: CDex 1.50Beta5
#
DISCID=230a9e15
DTITLE=May-Be SOFT - 淫乳女子校生・凌辱指導要領　サウンドトラック
DYEAR=1900
DGENRE=Game
TTITLE0=Data Track
TTITLE1=Salvation（ロングバージョン）
TTITLE2=邪道（ロングアレンジバージョン）
TTITLE3=闇と曖昧と
TTITLE4=bright flow
TTITLE5=陸上部
TTITLE6=孤独のテーマ
TTITLE7=陽気
TTITLE8=闇と曖昧と（ヴァリエーション3）
TTITLE9=バスケ部
TTITLE10=マン研
TTITLE11=元気
TTITLE12=小さな騒動
TTITLE13=ゲーセン
TTITLE14=ぬいぐるみ
TTITLE15=凌駕
TTITLE16=闇と曖昧と（ヴァリエーション2）
TTITLE17=出会い
TTITLE18=誘惑
TTITLE19=Salvation
TTITLE20=邪道
EXTD=
EXTT0=
EXTT1=
EXTT2=
EXTT3=
EXTT4=
EXTT5=
EXTT6=
EXTT7=
EXTT8=
EXTT9=
EXTT10=
EXTT11=
EXTT12=
EXTT13=
EXTT14=
EXTT15=
EXTT16=
EXTT17=
EXTT18=
EXTT19=
EXTT20=
PLAYORDER=
